<svg xmlns="http://www.w3.org/2000/svg" xmlns:xlink="http://www.w3.org/1999/xlink" width="2000" zoomAndPan="magnify" viewBox="0 0 1500 1499.999933" height="2000" preserveAspectRatio="xMidYMid meet" version="1.0"><defs><clipPath id="7957965495"><path d="M 94.984375 320.457031 L 1402.984375 320.457031 L 1402.984375 1179.203125 L 94.984375 1179.203125 Z M 94.984375 320.457031" clip-rule="nonzero"/></clipPath><clipPath id="86762c43bc"><path d="M 165.484375 320.457031 L 1332.625 320.457031 C 1371.5625 320.457031 1403.125 352.019531 1403.125 390.957031 L 1403.125 1109.042969 C 1403.125 1147.976562 1371.5625 1179.542969 1332.625 1179.542969 L 165.484375 1179.542969 C 126.546875 1179.542969 94.984375 1147.976562 94.984375 1109.042969 L 94.984375 390.957031 C 94.984375 352.019531 126.546875 320.457031 165.484375 320.457031 Z M 165.484375 320.457031" clip-rule="nonzero"/></clipPath></defs><g clip-path="url(#7957965495)"><g clip-path="url(#86762c43bc)"><path stroke-linecap="butt" transform="matrix(0.75, 0, 0, 0.75, 94.984355, 320.454502)" fill="none" stroke-linejoin="miter" d="M 94.000041 0.00337234 L 1650.187775 0.00337234 C 1702.104449 0.00337234 1744.187789 42.086712 1744.187789 94.003386 L 1744.187789 1051.451447 C 1744.187789 1103.362913 1702.104449 1145.451461 1650.187775 1145.451461 L 94.000041 1145.451461 C 42.083367 1145.451461 0.0000269751 1103.362913 0.0000269751 1051.451447 L 0.0000269751 94.003386 C 0.0000269751 42.086712 42.083367 0.00337234 94.000041 0.00337234 Z M 94.000041 0.00337234" stroke="#def6ec" stroke-width="130" stroke-opacity="1" stroke-miterlimit="4"/></g></g><path stroke-linecap="butt" transform="matrix(0.75, -0.000000000000000093, 0.000000000000000093, 0.75, 113.968617, 541.080293)" fill="none" stroke-linejoin="miter" d="M 0.000177155 32.50232 L 1693.44824 32.50232" stroke="#def6ec" stroke-width="65" stroke-opacity="1" stroke-miterlimit="4"/><path stroke-linecap="butt" transform="matrix(0, 0.75, -0.75, 0, 147.482745, 701.246824)" fill="none" stroke-linejoin="miter" d="M -0.000973132 49.997831 L 319.769888 49.997831" stroke="#ffffff" stroke-width="100" stroke-opacity="1" stroke-miterlimit="4"/><path stroke-linecap="butt" transform="matrix(0, 0.75, -0.75, 0, 1425.258079, 701.246824)" fill="none" stroke-linejoin="miter" d="M -0.000973132 50.000359 L 319.769888 50.000359" stroke="#ffffff" stroke-width="100" stroke-opacity="1" stroke-miterlimit="4"/></svg>